<svg width="20" height="20" viewBox="0 0 20 20" fill="none" xmlns="http://www.w3.org/2000/svg">
<path fill-rule="evenodd" clip-rule="evenodd" d="M14.375 12.7274C14.375 14.4882 12.6167 16.25 10 16.25C7.3833 16.25 5.625 14.4882 5.625 12.7274C5.625 10.901 6.81287 8.6265 8.20907 6.64644C8.84013 5.75149 9.47346 4.97193 9.96873 4.39605C10.4734 5.01693 11.1283 5.86211 11.7808 6.81595C12.4611 7.81046 13.1228 8.89988 13.6104 9.96016C14.1069 11.0399 14.375 11.9879 14.375 12.7274ZM4.375 12.7274C4.375 9.32937 7.58202 5.23185 9.15298 3.42852C9.66256 2.84357 10 2.5 10 2.5C10 2.5 10.3233 2.85736 10.8148 3.45597C12.3737 5.35437 15.625 9.6792 15.625 12.7274C15.625 15.3632 13.1066 17.5 10 17.5C6.8934 17.5 4.375 15.3632 4.375 12.7274ZM7.18646 10.625H8.5312C8.27818 11.2025 8.125 11.7501 8.125 12.216C8.125 12.9313 8.82477 13.75 10 13.75V15C8.27411 15 6.875 13.7535 6.875 12.216C6.875 11.7029 6.99438 11.1625 7.18646 10.625Z" fill="white"/>
</svg>
