<svg width="20" height="20" viewBox="0 0 20 20" fill="none" xmlns="http://www.w3.org/2000/svg">
<g clip-path="url(#clip0_6_1274)">
<path d="M11.6667 12.3V2.91666C11.6667 2.36413 11.4472 1.83422 11.0565 1.44352C10.6658 1.05282 10.1359 0.833328 9.58334 0.833328C9.0308 0.833328 8.5009 1.05282 8.1102 1.44352C7.7195 1.83422 7.5 2.36413 7.5 2.91666V12.3C6.83107 12.7469 6.3236 13.3972 6.05256 14.1547C5.78152 14.9121 5.76127 15.7367 5.9948 16.5066C6.22833 17.2765 6.70326 17.9508 7.34945 18.4301C7.99564 18.9093 8.77882 19.168 9.58334 19.168C10.3878 19.168 11.171 18.9093 11.8172 18.4301C12.4634 17.9508 12.9383 17.2765 13.1719 16.5066C13.4054 15.7367 13.3852 14.9121 13.1141 14.1547C12.8431 13.3972 12.3356 12.7469 11.6667 12.3Z" stroke="white" stroke-width="2" stroke-linecap="round" stroke-linejoin="round"/>
</g>
<defs>
<clipPath id="clip0_6_1274">
<rect width="20" height="20" fill="white"/>
</clipPath>
</defs>
</svg>
